{
    "asset" : {
        "generator" : "Khronos glTF Blender I/O v1.2.75",
        "version" : "2.0"
    },
    "scene" : 0,
    "scenes" : [
        {
            "name" : "Scene",
            "nodes" : [
                0
            ]
        }
    ],
    "nodes" : [
        {
            "mesh" : 0,
            "name" : "94029311-check-keffiyeh-seamless-pattern-traditional-vector-red",
            "scale" : [
                0.5860292911529541,
                0.5860292911529541,
                0.5860292911529541
            ]
        }
    ],
    "materials" : [
        {
            "doubleSided" : true,
            "emissiveFactor" : [
                0,
                0,
                0
            ],
            "name" : "94029311-check-keffiyeh-seamless-pattern-traditional-vector-red",
            "pbrMetallicRoughness" : {
                "metallicFactor" : 0,
                "roughnessFactor" : 0.5
            }
        },
        {
            "doubleSided" : true,
            "emissiveFactor" : [
                0,
                0,
                0
            ],
            "name" : "CLoth",
            "pbrMetallicRoughness" : {
                "metallicFactor" : 0,
                "roughnessFactor" : 1
            }
        }
    ],
    "meshes" : [
        {
            "name" : "94029311-check-keffiyeh-seamless-pattern-traditional-vector-red",
            "primitives" : [
                {
                    "attributes" : {
                        "POSITION" : 0,
                        "NORMAL" : 1,
                        "TEXCOORD_0" : 2
                    },
                    "indices" : 3,
                    "material" : 0
                },
                {
                    "attributes" : {
                        "POSITION" : 4,
                        "NORMAL" : 5,
                        "TEXCOORD_0" : 6
                    },
                    "indices" : 7,
                    "material" : 1
                }
            ]
        }
    ],
    "accessors" : [
        {
            "bufferView" : 0,
            "componentType" : 5126,
            "count" : 141,
            "max" : [
                0.3418318033218384,
                0.4721323549747467,
                0.3328852951526642
            ],
            "min" : [
                -0.28593939542770386,
                -0.10277632623910904,
                -0.06383223086595535
            ],
            "type" : "VEC3"
        },
        {
            "bufferView" : 1,
            "componentType" : 5126,
            "count" : 141,
            "type" : "VEC3"
        },
        {
            "bufferView" : 2,
            "componentType" : 5126,
            "count" : 141,
            "type" : "VEC2"
        },
        {
            "bufferView" : 3,
            "componentType" : 5123,
            "count" : 690,
            "type" : "SCALAR"
        },
        {
            "bufferView" : 4,
            "componentType" : 5126,
            "count" : 126,
            "max" : [
                0.15201084315776825,
                0.44221845269203186,
                0.33777984976768494
            ],
            "min" : [
                -0.13438208401203156,
                0.3671596944332123,
                -0.05285755544900894
            ],
            "type" : "VEC3"
        },
        {
            "bufferView" : 5,
            "componentType" : 5126,
            "count" : 126,
            "type" : "VEC3"
        },
        {
            "bufferView" : 6,
            "componentType" : 5126,
            "count" : 126,
            "type" : "VEC2"
        },
        {
            "bufferView" : 7,
            "componentType" : 5123,
            "count" : 528,
            "type" : "SCALAR"
        }
    ],
    "bufferViews" : [
        {
            "buffer" : 0,
            "byteLength" : 1692,
            "byteOffset" : 0
        },
        {
            "buffer" : 0,
            "byteLength" : 1692,
            "byteOffset" : 1692
        },
        {
            "buffer" : 0,
            "byteLength" : 1128,
            "byteOffset" : 3384
        },
        {
            "buffer" : 0,
            "byteLength" : 1380,
            "byteOffset" : 4512
        },
        {
            "buffer" : 0,
            "byteLength" : 1512,
            "byteOffset" : 5892
        },
        {
            "buffer" : 0,
            "byteLength" : 1512,
            "byteOffset" : 7404
        },
        {
            "buffer" : 0,
            "byteLength" : 1008,
            "byteOffset" : 8916
        },
        {
            "buffer" : 0,
            "byteLength" : 1056,
            "byteOffset" : 9924
        }
    ],
    "buffers" : [
        {
            "byteLength" : 10980,
            "uri" : "headCloth.bin"
        }
    ]
}
